<?xml version="1.0" encoding="UTF-8"?>
<!DOCTYPE svg PUBLIC "-//W3C//DTD SVG 1.1//EN" "http://www.w3.org/Graphics/SVG/1.1/DTD/svg11.dtd">
<!-- Creator: CorelDRAW -->
<svg xmlns="http://www.w3.org/2000/svg" xml:space="preserve" width="210mm" height="297mm" version="1.1" style="shape-rendering:geometricPrecision; text-rendering:geometricPrecision; image-rendering:optimizeQuality; fill-rule:evenodd; clip-rule:evenodd"
viewBox="0 0 21000 29700"
 xmlns:xlink="http://www.w3.org/1999/xlink"
 xmlns:xodm="http://www.corel.com/coreldraw/odm/2003">
 <defs>
  <style type="text/css">
   <![CDATA[
    .str0 {stroke:#2B2A29;stroke-width:200;stroke-miterlimit:22.9256}
    .fil0 {fill:#222D4F}
   ]]>
  </style>
 </defs>
 <g id="Layer_x0020_1">
  <metadata id="CorelCorpID_0Corel-Layer"/>
  <path class="fil0 str0" d="M5412.17 12276.77l0 5186.55c0,252.72 287.1,431.94 476.16,529.39 413.29,213.01 904.33,528.33 1305.69,731.89l1966.95 1102.63c292.64,156.05 1078.61,679.22 1358.36,679.22 173.94,0 533.29,-244.78 679.59,-325.97 225.28,-125.03 431.56,-237.64 644.71,-360.85 216.26,-125.01 424.56,-229.55 645.16,-360.39l2272.89 -1273.02c321.93,-178.67 811.89,-387.82 811.89,-722.9l0 -5239.48c0,-367.46 -778.16,-690.2 -1139.06,-898.51l-968.81 -539.52c-118.67,-64.84 -220.92,-121.95 -337.9,-191.34l-1948.29 -1094.84c-688.74,-397.11 -668.67,-419.51 -1389.95,9.8 -990.89,589.79 -2254.66,1255.89 -3267.36,1839.8l-642.51 363.04c-217.08,115.66 -467.52,249.14 -467.52,564.5z"/>
 </g>
</svg>
